HIERARCHY
ROOT Haolin_28_06:Solving:Hips
{
	OFFSET 0.000000 0.000000 0.000000
	CHANNELS 6 Xposition Yposition Zposition Xrotation Yrotation Zrotation
	JOINT Haolin_28_06:Solving:Spine
	{
		OFFSET 0.000000 -12.181966 2.015561
		CHANNELS 6 Xposition Yposition Zposition Xrotation Yrotation Zrotation
		JOINT Haolin_28_06:Solving:Spine1
		{
			OFFSET 0.000000 -8.890296 1.567602
			CHANNELS 6 Xposition Yposition Zposition Xrotation Yrotation Zrotation
			JOINT Haolin_28_06:Solving:Spine2
			{
				OFFSET 0.000000 -8.993092 0.786796
				CHANNELS 6 Xposition Yposition Zposition Xrotation Yrotation Zrotation
				JOINT Haolin_28_06:Solving:Spine3
				{
					OFFSET 0.000000 -9.027443 0.000000
					CHANNELS 6 Xposition Yposition Zposition Xrotation Yrotation Zrotation
					JOINT Haolin_28_06:Solving:Neck
					{
						OFFSET 0.000000 -11.606712 -1.160669
						CHANNELS 6 Xposition Yposition Zposition Xrotation Yrotation Zrotation
						JOINT Haolin_28_06:Solving:Neck1
						{
							OFFSET 0.000000 -7.471592 -0.653680
							CHANNELS 6 Xposition Yposition Zposition Xrotation Yrotation Zrotation
							JOINT Haolin_28_06:Solving:Head
							{
								OFFSET 0.000000 -7.386181 -1.302382
								CHANNELS 6 Xposition Yposition Zposition Xrotation Yrotation Zrotation
								JOINT Haolin_28_06:Solving:HeadEnd
								{
									OFFSET 0.000000 -9.728081 0.000002
									CHANNELS 6 Xposition Yposition Zposition Xrotation Yrotation Zrotation
									End Site
									{
										OFFSET 0.000000 -9.728081 0.000002
									}
								}
							}
						}
					}
					JOINT Haolin_28_06:Solving:RightShoulder
					{
						OFFSET 0.000000 -8.290508 -5.270916
						CHANNELS 6 Xposition Yposition Zposition Xrotation Yrotation Zrotation
						JOINT Haolin_28_06:Solving:RightArm
						{
							OFFSET -19.261074 -0.000008 0.000000
							CHANNELS 6 Xposition Yposition Zposition Xrotation Yrotation Zrotation
							JOINT Haolin_28_06:Solving:RightForeArm
							{
								OFFSET -30.691700 -0.000011 0.000000
								CHANNELS 6 Xposition Yposition Zposition Xrotation Yrotation Zrotation
								JOINT Haolin_28_06:Solving:RightHand
								{
									OFFSET -20.216934 -0.000008 0.000000
									CHANNELS 6 Xposition Yposition Zposition Xrotation Yrotation Zrotation
									JOINT Haolin_28_06:Solving:RightHandThumb1
									{
										OFFSET -4.948814 2.881329 -3.679893
										CHANNELS 6 Xposition Yposition Zposition Xrotation Yrotation Zrotation
										End Site
										{
											OFFSET -7.039886 -0.000004 -7.104978
										}
									}
									JOINT Haolin_28_06:Solving:RightHandMiddle1
									{
										OFFSET -13.196846 -0.000004 0.084595
										CHANNELS 6 Xposition Yposition Zposition Xrotation Yrotation Zrotation
										End Site
										{
											OFFSET -10.002037 -0.000004 0.000000
										}
									}
								}
							}
						}
					}
					JOINT Haolin_28_06:Solving:LeftShoulder
					{
						OFFSET 0.000000 -8.290508 -5.270916
						CHANNELS 6 Xposition Yposition Zposition Xrotation Yrotation Zrotation
						JOINT Haolin_28_06:Solving:LeftArm
						{
							OFFSET 19.261074 -0.000008 0.000000
							CHANNELS 6 Xposition Yposition Zposition Xrotation Yrotation Zrotation
							JOINT Haolin_28_06:Solving:LeftForeArm
							{
								OFFSET 30.691700 -0.000011 0.000000
								CHANNELS 6 Xposition Yposition Zposition Xrotation Yrotation Zrotation
								JOINT Haolin_28_06:Solving:LeftHand
								{
									OFFSET 20.216934 -0.000008 0.000000
									CHANNELS 6 Xposition Yposition Zposition Xrotation Yrotation Zrotation
									JOINT Haolin_28_06:Solving:LeftHandThumb1
									{
										OFFSET 4.948814 2.881329 -3.679893
										CHANNELS 6 Xposition Yposition Zposition Xrotation Yrotation Zrotation
										End Site
										{
											OFFSET 7.039886 -0.000004 -7.104978
										}
									}
									JOINT Haolin_28_06:Solving:LeftHandMiddle1
									{
										OFFSET 13.196846 -0.000004 0.084595
										CHANNELS 6 Xposition Yposition Zposition Xrotation Yrotation Zrotation
										End Site
										{
											OFFSET 10.002037 -0.000004 0.000000
										}
									}
								}
							}
						}
					}
				}
			}
		}
	}
	JOINT Haolin_28_06:Solving:RightUpLeg
	{
		OFFSET -10.083070 0.000000 0.000000
		CHANNELS 6 Xposition Yposition Zposition Xrotation Yrotation Zrotation
		JOINT Haolin_28_06:Solving:RightLeg
		{
			OFFSET 0.000000 47.042522 -0.000008
			CHANNELS 6 Xposition Yposition Zposition Xrotation Yrotation Zrotation
			JOINT Haolin_28_06:Solving:RightFoot
			{
				OFFSET 0.000000 38.766415 -0.000006
				CHANNELS 6 Xposition Yposition Zposition Xrotation Yrotation Zrotation
				JOINT Haolin_28_06:Solving:RightForeFoot
				{
					OFFSET 0.000000 3.531212 -0.000000
					CHANNELS 6 Xposition Yposition Zposition Xrotation Yrotation Zrotation
					JOINT Haolin_28_06:Solving:RightToeBase
					{
						OFFSET 0.000000 0.000000 -13.829352
						CHANNELS 6 Xposition Yposition Zposition Xrotation Yrotation Zrotation
						JOINT Haolin_28_06:Solving:RightToeBaseEnd
						{
							OFFSET 0.000000 0.000000 -4.034167
							CHANNELS 6 Xposition Yposition Zposition Xrotation Yrotation Zrotation
							End Site
							{
								OFFSET 0.000000 -4.034164 0.000004
							}
						}
					}
				}
			}
		}
	}
	JOINT Haolin_28_06:Solving:LeftUpLeg
	{
		OFFSET 10.083070 0.000000 0.000000
		CHANNELS 6 Xposition Yposition Zposition Xrotation Yrotation Zrotation
		JOINT Haolin_28_06:Solving:LeftLeg
		{
			OFFSET 0.000000 47.042522 -0.000008
			CHANNELS 6 Xposition Yposition Zposition Xrotation Yrotation Zrotation
			JOINT Haolin_28_06:Solving:LeftFoot
			{
				OFFSET 0.000000 38.766415 -0.000006
				CHANNELS 6 Xposition Yposition Zposition Xrotation Yrotation Zrotation
				JOINT Haolin_28_06:Solving:LeftForeFoot
				{
					OFFSET 0.000000 3.531212 -0.000000
					CHANNELS 6 Xposition Yposition Zposition Xrotation Yrotation Zrotation
					JOINT Haolin_28_06:Solving:LeftToeBase
					{
						OFFSET 0.000000 0.000000 -13.829352
						CHANNELS 6 Xposition Yposition Zposition Xrotation Yrotation Zrotation
						JOINT Haolin_28_06:Solving:LeftToeBaseEnd
						{
							OFFSET 0.000000 0.000000 -4.855067
							CHANNELS 6 Xposition Yposition Zposition Xrotation Yrotation Zrotation
							End Site
							{
								OFFSET 0.000000 -4.855064 0.000004
							}
						}
					}
				}
			}
		}
	}
}
MOTION
Frames: 5
Frame Time: 0.041667
22.923754 -112.357300 -93.371437 85.719093 -5.924636 0.847185 -0.000005 -12.181952 2.015578 18.865939 0.046967 -1.012308 -0.000004 -8.890295 1.567603 1.621933 -0.068291 0.084806 -0.000002 -8.993116 0.786761 0.572350 0.414369 1.229959 -0.000004 -9.027424 -0.000023 1.988668 -0.408791 2.425414 -0.000002 -11.606699 -1.160682 -1.633597 7.311147 -2.020784 -0.000000 -7.471621 -0.653682 2.906624 10.035992 -1.783754 0.000004 -7.386191 -1.302386 8.856239 0.876770 -2.725007 -0.000006 -9.728104 0.000058 0.000003 -0.000001 -0.000000 0.000006 -8.290470 -5.270919 -0.000013 20.886652 10.590520 -19.261063 0.000009 0.000002 -22.800111 -52.275645 -93.356583 -30.691727 -0.000022 -0.000007 -14.318792 -27.285258 -6.673836 -20.216923 -0.000004 0.000017 0.612875 -12.770240 2.770598 -4.948803 2.881335 -3.679871 -0.000003 -0.000000 0.000005 -13.196837 0.000001 0.084597 0.000000 0.000005 0.000001 0.000007 -8.290470 -5.270919 -0.000004 -10.822139 -10.172447 19.261087 0.000024 -0.000011 -28.434030 37.356343 90.497541 30.691685 -0.000018 0.000006 -14.382464 33.854164 8.129833 20.216906 -0.000012 0.000008 -0.118726 -1.314812 -5.159921 4.948812 2.881328 -3.679873 0.000002 0.000009 -0.000003 13.196866 -0.000015 0.084613 0.000002 0.000006 -0.000004 -10.083080 0.000006 0.000014 -15.086068 14.014467 -4.857435 -0.000004 47.042522 0.000023 15.561618 -0.000001 -0.000000 -0.000001 38.766411 0.000010 8.773005 9.339642 -3.810506 -0.000003 3.531212 -0.000020 -0.000000 -0.000002 0.000000 -0.000001 0.000014 -13.829351 -7.223348 0.000002 -0.000001 -0.000001 -0.000000 -4.034177 -0.000000 -0.000001 0.000001 10.083069 0.000008 0.000024 9.849380 -12.311713 4.440546 -0.000001 47.042526 0.000014 12.205651 -0.000001 -0.000000 -0.000013 38.766407 -0.000020 -7.507683 -0.086571 3.572290 0.000000 3.531219 0.000002 0.000000 -0.000002 0.000002 -0.000003 -0.000007 -13.829364 -1.162120 -0.000001 0.000001 -0.000002 0.000000 -4.855076 0.000001 -0.000000 -0.000001 
23.079084 -111.981819 -93.300323 85.640170 -6.201011 0.712030 0.000005 -12.181954 2.015546 18.875424 0.070230 -1.029117 -0.000000 -8.890301 1.567587 1.621807 -0.060906 0.067273 0.000001 -8.993110 0.786827 0.581572 0.515002 1.198536 -0.000000 -9.027452 0.000026 2.018499 -0.372239 2.345458 0.000000 -11.606686 -1.160639 -1.613168 7.386595 -2.069446 -0.000003 -7.471613 -0.653666 2.899562 10.140693 -1.781585 -0.000001 -7.386207 -1.302380 8.823477 0.884732 -2.728404 -0.000001 -9.728104 -0.000016 0.000001 -0.000001 -0.000000 -0.000003 -8.290493 -5.270906 -0.000016 20.799693 10.615118 -19.261078 0.000021 0.000016 -22.789681 -51.904373 -93.374690 -30.691706 0.000012 -0.000021 -13.887627 -26.582507 -6.313473 -20.216930 -0.000010 -0.000006 0.405259 -12.755010 1.834899 -4.948830 2.881325 -3.679878 -0.000004 -0.000000 -0.000001 -13.196882 -0.000003 0.084602 -0.000002 -0.000000 0.000003 -0.000008 -8.290497 -5.270905 -0.000009 -10.793501 -10.186383 19.261078 -0.000006 0.000021 -28.495875 37.533119 91.013131 30.691685 -0.000012 -0.000003 -14.166257 33.784926 7.989876 20.216930 -0.000010 -0.000003 -0.118633 -1.317222 -5.146655 4.948789 2.881326 -3.679868 0.000003 -0.000007 -0.000003 13.196836 -0.000007 0.084585 0.000000 -0.000006 -0.000003 -10.083062 0.000026 -0.000007 -14.891269 14.927758 -4.862480 -0.000001 47.042515 0.000004 15.173670 -0.000000 -0.000001 0.000002 38.766434 -0.000015 9.041107 9.526522 -4.011645 -0.000000 3.531212 0.000023 0.000000 0.000002 0.000000 0.000000 0.000010 -13.829349 -7.499372 0.000001 0.000000 0.000007 -0.000000 -4.034167 -0.000000 0.000003 -0.000000 10.083073 0.000016 -0.000038 10.187494 -12.120066 4.599316 -0.000013 47.042507 -0.000006 12.223555 -0.000001 0.000000 -0.000015 38.766418 -0.000014 -7.623248 -0.025491 3.471334 -0.000001 3.531212 0.000011 -0.000000 -0.000000 0.000001 0.000009 -0.000002 -13.829353 -1.341205 0.000000 -0.000001 -0.000004 -0.000008 -4.855076 -0.000001 0.000001 -0.000001 
23.244501 -111.587242 -93.224220 85.534541 -6.478398 0.565707 -0.000011 -12.181968 2.015582 18.882770 0.093356 -1.047241 0.000003 -8.890284 1.567620 1.621014 -0.051670 0.042944 0.000001 -8.993099 0.786783 0.590560 0.623180 1.152043 0.000003 -9.027426 0.000021 2.055497 -0.342421 2.285145 0.000001 -11.606692 -1.160677 -1.589048 7.477318 -2.110255 0.000004 -7.471610 -0.653695 2.901602 10.248365 -1.761950 0.000003 -7.386194 -1.302410 8.823240 0.892675 -2.712322 -0.000000 -9.728065 0.000009 -0.000002 0.000002 -0.000000 0.000000 -8.290520 -5.270912 -0.000006 20.801859 10.615657 -19.261078 0.000019 0.000009 -22.747361 -51.929129 -93.342315 -30.691717 -0.000015 0.000003 -13.721033 -25.954169 -6.099379 -20.216909 -0.000017 0.000016 0.303024 -12.717514 1.376168 -4.948803 2.881325 -3.679883 -0.000005 0.000002 0.000004 -13.196850 0.000006 0.084607 -0.000009 0.000007 0.000005 -0.000001 -8.290520 -5.270919 -0.000003 -10.759741 -10.197093 19.261086 -0.000008 0.000014 -28.526727 37.723770 91.511892 30.691702 -0.000014 0.000007 -13.935240 33.671624 7.833014 20.216925 -0.000009 -0.000003 -0.114045 -1.256060 -5.188258 4.948812 2.881318 -3.679883 0.000001 0.000000 -0.000004 13.196861 -0.000005 0.084598 0.000002 -0.000005 -0.000000 -10.083082 0.000011 0.000031 -14.659635 15.839345 -4.832825 -0.000004 47.042515 -0.000007 14.915009 -0.000001 0.000000 -0.000000 38.766411 -0.000005 9.115301 9.710593 -4.215012 0.000001 3.531204 0.000003 0.000001 -0.000001 0.000001 0.000001 0.000006 -13.829359 -7.625979 0.000001 -0.000001 -0.000001 -0.000007 -4.034155 0.000001 -0.000003 0.000001 10.083050 0.000010 0.000006 10.538789 -11.932345 4.764670 -0.000005 47.042545 -0.000027 12.305645 0.000002 -0.000002 -0.000007 38.766415 -0.000011 -7.779544 0.023342 3.353748 -0.000002 3.531212 0.000001 -0.000001 0.000000 0.000001 -0.000004 -0.000001 -13.829334 -1.318279 0.000001 0.000000 -0.000003 -0.000008 -4.855057 -0.000001 0.000002 -0.000000 
23.414577 -111.173584 -93.142769 85.387303 -6.745806 0.407875 -0.000003 -12.181952 2.015566 18.893440 0.121147 -1.070617 0.000000 -8.890325 1.567617 1.627125 -0.043800 0.026462 -0.000002 -8.993073 0.786806 0.617038 0.727474 1.103955 -0.000001 -9.027440 -0.000028 2.091314 -0.306087 2.206634 -0.000003 -11.606714 -1.160695 -1.561846 7.529874 -2.141201 0.000001 -7.471597 -0.653675 2.911368 10.339202 -1.736109 0.000002 -7.386181 -1.302400 8.818400 0.897756 -2.682607 -0.000002 -9.728073 -0.000005 -0.000001 0.000001 -0.000000 -0.000003 -8.290478 -5.270941 -0.000009 20.821813 10.630467 -19.261078 0.000008 0.000016 -22.676274 -52.118435 -93.280085 -30.691744 -0.000002 -0.000010 -13.867654 -25.381002 -6.040544 -20.216942 -0.000012 0.000002 0.264397 -12.642394 1.207849 -4.948806 2.881339 -3.679878 0.000002 0.000002 0.000001 -13.196860 0.000004 0.084579 -0.000001 0.000002 0.000001 -0.000005 -8.290482 -5.270941 -0.000003 -10.733985 -10.212019 19.261084 0.000018 -0.000003 -28.567736 37.946168 92.007614 30.691711 -0.000008 -0.000022 -13.773513 33.490904 7.703396 20.216942 -0.000021 0.000007 -0.108611 -1.187425 -5.226248 4.948819 2.881325 -3.679889 0.000000 -0.000010 -0.000005 13.196862 -0.000005 0.084584 -0.000003 -0.000010 0.000001 -10.083076 -0.000006 0.000013 -14.372567 16.694994 -4.789851 0.000002 47.042522 0.000002 14.767159 0.000002 -0.000001 -0.000001 38.766426 -0.000004 8.983382 9.853924 -4.292656 -0.000000 3.531220 0.000010 0.000001 0.000003 -0.000001 0.000002 0.000012 -13.829339 -7.135393 0.000003 -0.000002 0.000003 -0.000000 -4.034151 -0.000000 0.000001 0.000000 10.083067 0.000009 -0.000002 10.930775 -11.715772 4.935855 -0.000003 47.042526 -0.000016 12.407022 0.000003 -0.000003 0.000001 38.766430 -0.000023 -7.945053 0.052656 3.233921 -0.000003 3.531212 -0.000019 -0.000001 0.000003 -0.000000 -0.000003 0.000016 -13.829361 -1.433677 -0.000005 -0.000001 0.000007 -0.000008 -4.855056 -0.000001 -0.000002 -0.000001 
23.577177 -110.747780 -93.062714 85.231909 -7.016115 0.300603 0.000005 -12.181970 2.015532 18.888979 0.125015 -1.158612 0.000006 -8.890291 1.567595 1.637128 -0.036928 0.008344 0.000004 -8.993095 0.786799 0.655511 0.823267 1.064882 0.000002 -9.027420 -0.000018 2.121267 -0.273161 2.133795 0.000003 -11.606699 -1.160643 -1.505691 7.587025 -2.181983 0.000002 -7.471582 -0.653708 2.917291 10.405470 -1.726750 -0.000001 -7.386196 -1.302377 8.790533 0.900279 -2.643261 0.000001 -9.728081 0.000015 -0.000002 0.000000 0.000000 0.000002 -8.290504 -5.270904 -0.000015 20.949447 10.596361 -19.261065 0.000021 0.000017 -22.491391 -52.882326 -93.105642 -30.691713 -0.000015 -0.000008 -14.459972 -24.999554 -6.219534 -20.216927 -0.000008 0.000000 0.386020 -12.502153 1.782629 -4.948817 2.881313 -3.679875 -0.000003 -0.000000 -0.000003 -13.196855 -0.000029 0.084597 -0.000004 -0.000002 -0.000001 0.000003 -8.290504 -5.270904 -0.000010 -10.704056 -10.227376 19.261065 -0.000017 0.000018 -28.628622 38.299128 92.474122 30.691698 -0.000002 -0.000004 -13.682892 33.267222 7.606682 20.216953 -0.000008 0.000005 -0.109455 -1.180158 -5.299085 4.948821 2.881337 -3.679877 0.000001 0.000000 -0.000001 13.196869 -0.000002 0.084576 0.000002 0.000002 -0.000000 -10.083065 0.000009 -0.000003 -14.068317 17.459017 -4.814419 0.000005 47.042519 0.000003 14.741973 -0.000001 0.000001 -0.000005 38.766422 -0.000017 8.755329 9.968756 -4.008374 0.000001 3.531204 -0.000007 0.000001 -0.000000 -0.000001 -0.000003 0.000008 -13.829348 -6.748494 -0.000001 -0.000001 0.000000 -0.000008 -4.034136 -0.000001 0.000000 -0.000000 10.083068 -0.000013 -0.000023 11.302013 -11.563380 5.029516 -0.000006 47.042511 -0.000015 12.566650 -0.000001 -0.000000 -0.000002 38.766418 -0.000023 -8.137937 0.151645 3.155338 -0.000006 3.531212 0.000007 -0.000000 -0.000000 -0.000001 0.000001 0.000010 -13.829329 -1.651913 0.000003 0.000000 0.000000 -0.000008 -4.855080 0.000001 0.000001 -0.000000 
